<?xml version="1.0" encoding="UTF-8" standalone="no"?>
<!-- Created with Inkscape (http://www.inkscape.org/) -->

<svg
   xmlns:dc="http://purl.org/dc/elements/1.1/"
   xmlns:cc="http://creativecommons.org/ns#"
   xmlns:rdf="http://www.w3.org/1999/02/22-rdf-syntax-ns#"
   xmlns:svg="http://www.w3.org/2000/svg"
   xmlns="http://www.w3.org/2000/svg"
   xmlns:sodipodi="http://sodipodi.sourceforge.net/DTD/sodipodi-0.dtd"
   xmlns:inkscape="http://www.inkscape.org/namespaces/inkscape"
   width="744.09448819"
   height="1052.3622047"
   id="svg4686"
   version="1.1"
   inkscape:version="0.48.4 r9939"
   sodipodi:docname="New document 8">
  <defs
     id="defs4688">
    <inkscape:path-effect
       is_visible="true"
       id="path-effect4742"
       effect="spiro" />
    <inkscape:path-effect
       is_visible="true"
       id="path-effect4720"
       effect="spiro" />
    <inkscape:path-effect
       effect="spiro"
       id="path-effect4709"
       is_visible="true" />
  </defs>
  <sodipodi:namedview
     id="base"
     pagecolor="#ffffff"
     bordercolor="#666666"
     borderopacity="1.0"
     inkscape:pageopacity="0.0"
     inkscape:pageshadow="2"
     inkscape:zoom="0.98994949"
     inkscape:cx="535.9415"
     inkscape:cy="580.70577"
     inkscape:document-units="px"
     inkscape:current-layer="layer1"
     showgrid="false"
     showguides="true"
     inkscape:guide-bbox="true"
     inkscape:window-width="1837"
     inkscape:window-height="1006"
     inkscape:window-x="1272"
     inkscape:window-y="18"
     inkscape:window-maximized="1">
    <sodipodi:guide
       orientation="1,0"
       position="402.04071,460.62956"
       id="guide4705" />
  </sodipodi:namedview>
  <metadata
     id="metadata4691">
    <rdf:RDF>
      <cc:Work
         rdf:about="">
        <dc:format>image/svg+xml</dc:format>
        <dc:type
           rdf:resource="http://purl.org/dc/dcmitype/StillImage" />
        <dc:title></dc:title>
      </cc:Work>
    </rdf:RDF>
  </metadata>
  <g
     inkscape:label="Layer 1"
     inkscape:groupmode="layer"
     id="layer1">
    <path
       style="fill:none;stroke:#000000;stroke-width:1px;stroke-linecap:butt;stroke-linejoin:miter;stroke-opacity:1"
       d="m 401.53564,327.95653 c -6.81763,0.59704 -13.32261,4.16656 -17.48828,9.59646 -3.35527,4.37356 -5.18754,9.89298 -5.11389,15.40483 0.72912,13.84108 1.31842,27.68953 1.76776,41.54252 0.0869,2.67998 0.16803,5.37346 -0.17112,8.03332 -0.33915,2.65986 -1.11944,5.30674 -2.62628,7.52469 -2.29531,3.37852 -6.2803,5.54425 -10.36381,5.63243 l -15.2883,1.33929 c -4.5254,0.77841 -9.33958,-0.27868 -13.12255,-2.88143 -3.66616,-2.52238 -6.32707,-6.46573 -7.29406,-10.80947 l -4.0126,-21.17994 c -1.11405,-3.33212 -3.13633,-6.35565 -5.79061,-8.6576 -2.65428,-2.30194 -5.93348,-3.87617 -9.38969,-4.50765 -4.88953,-0.89336 -10.10568,0.14669 -14.27867,2.84703 -4.17299,2.70033 -7.25881,7.03249 -8.44713,11.85883 l -1.01541,14.84591 c -0.46347,2.20947 -1.47628,4.30155 -2.92191,6.03554 -2.77246,3.32548 -7.17164,5.22554 -11.49334,4.9641 l -103.26489,1.875 c -3.79437,-0.17772 -7.63883,1.08673 -10.58692,3.48205 -2.9481,2.39533 -4.97275,5.89953 -5.57553,9.64993 -0.57133,3.55476 0.13436,7.30121 1.95983,10.4045 1.82546,3.10329 4.75713,5.54035 8.1417,6.7681 l 90.91373,49.49747 75.76144,5.05077 c 7.89479,1.28489 15.51553,4.22927 22.22335,8.5863 2.52104,1.63753 4.93517,3.5865 6.43027,6.19453 0.74756,1.30401 1.25631,2.74001 1.53757,4.21656 0.28127,1.47654 0.3326,2.98594 0.36592,4.48866 l 2.47942,111.82626 c 0.47966,2.42872 -0.23791,5.06476 -1.88243,6.91524 -1.73451,1.95174 -4.46066,2.97254 -7.05049,2.64004 l -35.21528,0.59437 c -5.92512,1.65703 -11.13031,5.74683 -14.14214,11.11168 -3.54982,6.32316 -3.93445,14.325 -1.00748,20.95948 2.92698,6.63449 9.0964,11.74484 16.15976,13.38571 14.92629,2.14772 29.88338,4.08133 44.86513,5.80003 11.79971,1.35366 23.61472,2.574 35.442,3.66072"
       id="path4707"
       inkscape:path-effect="#path-effect4709"
       inkscape:original-d="m 401.53564,327.95653 c 0,0 -13.09296,4.18647 -17.48828,9.59646 -2.91584,3.58898 -5.11389,15.40483 -5.11389,15.40483 1.34687,14.81557 1.09433,34.13473 1.76776,41.54252 0.67344,7.40778 0.23684,13.65928 -2.7974,15.55801 -3.20206,2.00375 -10.36381,5.63243 -10.36381,5.63243 l -15.2883,1.33929 c 0,0 -9.22602,-0.31164 -13.12255,-2.88143 -3.62867,-2.39311 -7.29406,-10.80947 -7.29406,-10.80947 -1.01015,-7.7445 -3.00245,-13.43544 -4.0126,-21.17994 -5.38748,-3.70389 -8.67488,-13.81579 -15.1803,-13.16525 -9.48246,0.94825 -14.64458,9.6551 -22.7258,14.70586 0.67344,6.73435 -1.68885,8.11156 -1.01541,14.84591 -1.85194,1.17851 -7.20185,-13.41178 -2.92191,6.03554 0.64525,2.93191 -9.64139,3.78559 -11.49334,4.9641 -36.02877,0 -67.23612,1.875 -103.26489,1.875 -5.38748,4.37733 -14.80109,6.32517 -16.16245,13.13198 -1.30243,6.51215 6.73435,11.4484 10.10153,17.1726 30.30458,16.49916 60.60915,32.99831 90.91373,49.49747 25.25381,1.68359 50.50763,3.36718 75.76144,5.05077 7.7445,5.38748 18.77013,-0.19308 22.22335,8.5863 7.3158,18.59947 7.90142,-4.5994 8.33376,14.89975 l 2.47942,111.82626 c -0.67344,1.68358 1.44265,3.71643 -1.88243,6.91524 -3.32508,3.19882 -6.37706,0.95646 -7.05049,2.64004 -17.84603,-0.33672 -17.36925,0.93109 -35.21528,0.59437 -4.04061,3.36717 -14.85279,5.90021 -14.14214,11.11168 1.75022,12.83499 6.06092,22.89679 15.15228,34.34519 16.16244,7.07107 27.75031,1.52132 44.86513,5.80003 11.7599,2.93998 23.32017,3.66072 35.442,3.66072"
       inkscape:connector-curvature="0"
       sodipodi:nodetypes="csczsccsccsccsccscccsscsccscsc"
       inkscape:transform-center-x="123.83537"
       inkscape:transform-center-y="190.07018" />
    <path
       inkscape:transform-center-y="190.07018"
       inkscape:transform-center-x="-123.83537"
       sodipodi:nodetypes="csczsccsccsccsccscccsscsccscsc"
       inkscape:connector-curvature="0"
       inkscape:original-d="m 403.04072,327.95653 c 0,0 13.09296,4.18647 17.48828,9.59646 2.91584,3.58898 5.11389,15.40483 5.11389,15.40483 -1.34687,14.81557 -1.09433,34.13473 -1.76776,41.54252 -0.67344,7.40778 -0.23684,13.65928 2.7974,15.55801 3.20206,2.00375 10.36381,5.63243 10.36381,5.63243 l 15.2883,1.33929 c 0,0 9.22602,-0.31164 13.12255,-2.88143 3.62867,-2.39311 7.29406,-10.80947 7.29406,-10.80947 1.01015,-7.7445 3.00245,-13.43544 4.0126,-21.17994 5.38748,-3.70389 8.67488,-13.81579 15.1803,-13.16525 9.48246,0.94825 14.64458,9.6551 22.7258,14.70586 -0.67344,6.73435 1.68885,8.11156 1.01541,14.84591 1.85194,1.17851 7.20185,-13.41178 2.92191,6.03554 -0.64525,2.93191 9.64139,3.78559 11.49334,4.9641 36.02877,0 67.23612,1.875 103.26489,1.875 5.38748,4.37733 14.80109,6.32517 16.16245,13.13198 1.30243,6.51215 -6.73435,11.4484 -10.10153,17.1726 -30.30458,16.49916 -60.60915,32.99831 -90.91373,49.49747 -25.25381,1.68359 -50.50763,3.36718 -75.76144,5.05077 -7.7445,5.38748 -18.77013,-0.19308 -22.22335,8.5863 -7.3158,18.59947 -7.90142,-4.5994 -8.33376,14.89975 l -2.47942,111.82626 c 0.67344,1.68358 -1.44265,3.71643 1.88243,6.91524 3.32508,3.19882 6.37706,0.95646 7.05049,2.64004 17.84603,-0.33672 17.36925,0.93109 35.21528,0.59437 4.04061,3.36717 14.85279,5.90021 14.14214,11.11168 -1.75022,12.83499 -6.06092,22.89679 -15.15228,34.34519 -16.16244,7.07107 -27.75031,1.52132 -44.86513,5.80003 -11.7599,2.93998 -23.32017,3.66072 -35.442,3.66072"
       inkscape:path-effect="#path-effect4742"
       id="path4738"
       d="m 403.04072,327.95653 c 6.81763,0.59704 13.32261,4.16656 17.48828,9.59646 3.35527,4.37356 5.18754,9.89298 5.11389,15.40483 -0.72912,13.84108 -1.31842,27.68953 -1.76776,41.54252 -0.0869,2.67998 -0.16803,5.37346 0.17112,8.03332 0.33915,2.65986 1.11944,5.30674 2.62628,7.52469 2.29531,3.37852 6.2803,5.54425 10.36381,5.63243 l 15.2883,1.33929 c 4.5254,0.77841 9.33958,-0.27868 13.12255,-2.88143 3.66616,-2.52238 6.32707,-6.46573 7.29406,-10.80947 l 4.0126,-21.17994 c 1.11405,-3.33212 3.13633,-6.35565 5.79061,-8.6576 2.65428,-2.30194 5.93348,-3.87617 9.38969,-4.50765 4.88953,-0.89336 10.10568,0.14669 14.27867,2.84703 4.17299,2.70033 7.25881,7.03249 8.44713,11.85883 l 1.01541,14.84591 c 0.46347,2.20947 1.47628,4.30155 2.92191,6.03554 2.77246,3.32548 7.17164,5.22554 11.49334,4.9641 l 103.26489,1.875 c 3.79437,-0.17772 7.63883,1.08673 10.58692,3.48205 2.9481,2.39533 4.97275,5.89953 5.57553,9.64993 0.57133,3.55476 -0.13436,7.30121 -1.95983,10.4045 -1.82546,3.10329 -4.75713,5.54035 -8.1417,6.7681 l -90.91373,49.49747 -75.76144,5.05077 c -7.89479,1.28489 -15.51553,4.22927 -22.22335,8.5863 -2.52104,1.63753 -4.93517,3.5865 -6.43027,6.19453 -0.74756,1.30401 -1.25631,2.74001 -1.53757,4.21656 -0.28127,1.47654 -0.3326,2.98594 -0.36592,4.48866 l -2.47942,111.82626 c -0.47966,2.42872 0.23791,5.06476 1.88243,6.91524 1.73451,1.95174 4.46066,2.97254 7.05049,2.64004 l 35.21528,0.59437 c 5.92512,1.65703 11.13031,5.74683 14.14214,11.11168 3.54982,6.32316 3.93445,14.325 1.00748,20.95948 -2.92698,6.63449 -9.0964,11.74484 -16.15976,13.38571 -14.92629,2.14772 -29.88338,4.08133 -44.86513,5.80003 -11.79971,1.35366 -23.61472,2.574 -35.442,3.66072"
       style="fill:none;stroke:#000000;stroke-width:1px;stroke-linecap:butt;stroke-linejoin:miter;stroke-opacity:1" />
    <path
       style="fill:#ffffff;fill-opacity:1;fill-rule:nonzero;stroke:none"
       d="m 380.78207,693.52139 c -9.72272,-1.07297 -27.30406,-3.23006 -39.06966,-4.79355 -18.407,-2.44603 -22.03972,-3.2223 -26.03397,-5.56309 -6.12974,-3.59227 -9.72086,-9.38449 -10.38941,-16.7574 -0.69003,-7.60976 1.03049,-12.45726 6.28722,-17.71399 5.5693,-5.56931 10.09075,-6.5232 30.91991,-6.5232 17.85494,0 21.55681,-0.92604 22.75293,-5.69175 0.92818,-3.69818 -1.6054,-118.29092 -2.71135,-122.63309 -1.80804,-7.0987 -13.6047,-14.80756 -26.95952,-17.61746 -3.75045,-0.78911 -22.95619,-2.43184 -42.67942,-3.65051 l -35.86041,-2.21576 -48.32632,-26.24722 c -52.73557,-28.64199 -52.17631,-28.24425 -52.17631,-37.1067 0,-5.58097 2.74451,-10.39052 7.27138,-12.74257 2.9161,-1.51513 8.82489,-1.82947 47.77438,-2.54154 73.99608,-1.3528 68.22776,-1.05345 71.98861,-3.73589 4.63143,-3.30339 5.95678,-6.49114 6.79164,-16.33534 0.89483,-10.55144 3.28735,-15.33301 9.49123,-18.96874 8.60946,-5.04548 19.15745,-2.71005 24.28624,5.37722 1.8119,2.85709 3.27103,7.4747 4.49178,14.21493 3.06063,16.89897 4.62938,19.99016 12.07166,23.78693 3.82714,1.95246 5.18706,2.0735 16.26314,1.44754 14.27558,-0.80678 19.6785,-2.69153 22.47203,-7.83915 2.03927,-3.75773 2.25099,-10.73245 1.34422,-44.2827 -0.48295,-17.86928 -0.40705,-18.87111 1.73293,-22.87243 4.06473,-7.60023 13.10321,-13.51394 20.60763,-13.48319 3.85508,0.0158 12.35181,4.46643 15.36631,8.04895 5.81092,6.9059 5.9431,7.902 5.23059,39.41835 -0.6021,26.63224 -0.51317,29.04888 1.18681,32.25308 3.23232,6.09241 5.90577,7.27013 19.15962,8.44026 14.61528,1.29033 18.50929,0.64648 23.53147,-3.89076 4.70335,-4.2492 5.42459,-6.02086 8.19685,-20.13506 2.59345,-13.2038 3.78437,-15.77939 9.06485,-19.60455 7.11515,-5.15419 15.6516,-4.93673 22.19037,0.56529 4.83781,4.07074 6.75719,8.89904 7.28486,18.32547 0.50127,8.95444 1.76333,11.70717 7.24567,15.80366 2.68704,2.0078 4.51984,2.11084 50.95029,2.86425 26.48964,0.42984 52.43634,1.04561 57.65933,1.36839 9.2125,0.56932 9.61554,0.69805 13.48438,4.30687 3.2171,3.00088 4.08812,4.60792 4.50576,8.3132 0.55263,4.90291 -0.97221,9.07799 -4.47239,12.24561 -1.06782,0.96636 -22.82001,13.20111 -48.33821,27.18833 l -46.39672,25.43132 -39.5478,2.74546 c -43.83702,3.04322 -47.47008,3.72289 -58.70082,10.98166 -9.53714,6.16415 -9.15595,4.1189 -10.29851,55.25708 -0.54462,24.37583 -1.22825,51.68538 -1.51918,60.68788 -0.52302,16.18387 -0.50165,16.4 1.89787,19.1929 l 2.42686,2.82471 20.54591,0.53578 c 22.94465,0.59833 24.05601,0.8876 30.40358,7.91362 9.28074,10.27266 6.88622,25.01436 -5.38183,33.13297 -3.44846,2.28209 -6.72356,2.9761 -25.92969,5.49465 -24.15608,3.16767 -59.42496,7.0338 -62.47224,6.84812 -1.06529,-0.0649 -9.89183,-0.99588 -19.61455,-2.06884 z"
       id="path4744"
       inkscape:connector-curvature="0" />
  </g>
</svg>
