<?xml version="1.0" encoding="UTF-8" standalone="no"?>
<!-- Created with Inkscape (http://www.inkscape.org/) -->

<svg
   xmlns:dc="http://purl.org/dc/elements/1.1/"
   xmlns:cc="http://creativecommons.org/ns#"
   xmlns:rdf="http://www.w3.org/1999/02/22-rdf-syntax-ns#"
   xmlns:svg="http://www.w3.org/2000/svg"
   xmlns="http://www.w3.org/2000/svg"
   xmlns:sodipodi="http://sodipodi.sourceforge.net/DTD/sodipodi-0.dtd"
   xmlns:inkscape="http://www.inkscape.org/namespaces/inkscape"
   width="744.09448819"
   height="1052.3622047"
   id="svg5442"
   version="1.1"
   inkscape:version="0.48.4 r9939"
   sodipodi:docname="capture_point_c.svg"
   inkscape:export-filename="C:\wrk\WarThunder\images\statics\capture_point.png"
   inkscape:export-xdpi="552.27271"
   inkscape:export-ydpi="552.27271">
  <defs
     id="defs5444">
    <filter
       inkscape:collect="always"
       id="filter6007">
      <feGaussianBlur
         inkscape:collect="always"
         stdDeviation="2.3839062"
         id="feGaussianBlur6009" />
    </filter>
  </defs>
  <sodipodi:namedview
     id="base"
     pagecolor="#ffffff"
     bordercolor="#666666"
     borderopacity="1.0"
     inkscape:pageopacity="0.0"
     inkscape:pageshadow="2"
     inkscape:zoom="1.4"
     inkscape:cx="324.71158"
     inkscape:cy="581.59365"
     inkscape:document-units="px"
     inkscape:current-layer="layer1"
     showgrid="false"
     showguides="true"
     inkscape:guide-bbox="true"
     inkscape:window-width="1837"
     inkscape:window-height="1006"
     inkscape:window-x="1272"
     inkscape:window-y="18"
     inkscape:window-maximized="1">
    <sodipodi:guide
       orientation="0,1"
       position="365.71429,545.71429"
       id="guide5452" />
    <sodipodi:guide
       orientation="1,0"
       position="377.14286,400"
       id="guide5454" />
  </sodipodi:namedview>
  <metadata
     id="metadata5447">
    <rdf:RDF>
      <cc:Work
         rdf:about="">
        <dc:format>image/svg+xml</dc:format>
        <dc:type
           rdf:resource="http://purl.org/dc/dcmitype/StillImage" />
        <dc:title></dc:title>
      </cc:Work>
    </rdf:RDF>
  </metadata>
  <g
     inkscape:label="Layer 1"
     inkscape:groupmode="layer"
     id="layer1">
    <path
       style="fill:#ffffff;fill-opacity:0.84574465;fill-rule:nonzero;stroke:#000000;stroke-width:15;stroke-linecap:round;stroke-linejoin:miter;stroke-miterlimit:4;stroke-opacity:1;stroke-dasharray:none;stroke-dashoffset:0;filter:url(#filter6007)"
       d="M 377.15625 268.25 L 138.75 506.65625 L 377.15625 745.03125 L 615.53125 506.65625 L 377.15625 268.25 z M 379.78125 370.46875 C 403.33677 370.46901 423.04684 378.50153 438.90625 394.59375 C 450.21744 406.02197 458.50226 422.99407 463.75 445.5 L 421.78125 457.75 C 419.09902 443.87334 413.76904 433.21757 405.78125 425.8125 C 397.79319 418.40784 388.37606 414.71897 377.53125 414.71875 C 362.02174 414.71897 349.35784 421.4732 339.5625 435 C 329.76702 448.52719 324.87494 470.86472 324.875 502 C 324.87494 534.30166 329.65649 557.2627 339.21875 570.90625 C 348.78086 584.54992 361.19247 591.37504 376.46875 591.375 C 387.66339 591.37504 397.33702 587.0314 405.5 578.34375 C 413.6627 569.65621 419.57237 555.89124 423.1875 537 L 464.28125 552.90625 C 457.86739 581.59289 447.20742 602.5458 432.28125 615.78125 C 417.35475 629.01673 398.96259 635.625 377.15625 635.625 C 349.75231 635.625 327.55656 625.07555 310.53125 603.96875 C 290.94039 579.59686 281.15624 546.70989 281.15625 505.3125 C 281.15624 461.58312 290.98002 427.37823 310.6875 402.65625 C 327.82942 381.19987 350.86136 370.46901 379.78125 370.46875 z "
       id="rect5456"
       inkscape:export-filename="C:\wrk\WarThunder\images\statics\capture_point_c.png"
       inkscape:export-xdpi="552.27271"
       inkscape:export-ydpi="552.27271" />
  </g>
</svg>
