<?xml version="1.0" encoding="UTF-8" standalone="no"?>
<!-- Created with Inkscape (http://www.inkscape.org/) -->

<svg
   xmlns:dc="http://purl.org/dc/elements/1.1/"
   xmlns:cc="http://creativecommons.org/ns#"
   xmlns:rdf="http://www.w3.org/1999/02/22-rdf-syntax-ns#"
   xmlns:svg="http://www.w3.org/2000/svg"
   xmlns="http://www.w3.org/2000/svg"
   xmlns:sodipodi="http://sodipodi.sourceforge.net/DTD/sodipodi-0.dtd"
   xmlns:inkscape="http://www.inkscape.org/namespaces/inkscape"
   width="744.09448819"
   height="1052.3622047"
   id="svg4686"
   version="1.1"
   inkscape:version="0.48.4 r9939"
   sodipodi:docname="tank_spawn.svg"
   inkscape:export-filename="C:\wrk\WarThunder\images\statics\tank_spawn.png"
   inkscape:export-xdpi="552.27271"
   inkscape:export-ydpi="552.27271">
  <defs
     id="defs4688">
    <inkscape:path-effect
       is_visible="true"
       id="path-effect4742"
       effect="spiro" />
    <inkscape:path-effect
       is_visible="true"
       id="path-effect4720"
       effect="spiro" />
    <inkscape:path-effect
       effect="spiro"
       id="path-effect4709"
       is_visible="true" />
    <filter
       inkscape:collect="always"
       id="filter6571">
      <feGaussianBlur
         inkscape:collect="always"
         stdDeviation="2.7577344"
         id="feGaussianBlur6573" />
    </filter>
  </defs>
  <sodipodi:namedview
     id="base"
     pagecolor="#ffffff"
     bordercolor="#666666"
     borderopacity="1.0"
     inkscape:pageopacity="0.0"
     inkscape:pageshadow="2"
     inkscape:zoom="1.4"
     inkscape:cx="473.50491"
     inkscape:cy="585.72386"
     inkscape:document-units="px"
     inkscape:current-layer="layer1"
     showgrid="false"
     showguides="true"
     inkscape:guide-bbox="true"
     inkscape:window-width="1837"
     inkscape:window-height="1006"
     inkscape:window-x="1272"
     inkscape:window-y="18"
     inkscape:window-maximized="1">
    <sodipodi:guide
       orientation="1,0"
       position="402.04071,460.62956"
       id="guide4705" />
  </sodipodi:namedview>
  <metadata
     id="metadata4691">
    <rdf:RDF>
      <cc:Work
         rdf:about="">
        <dc:format>image/svg+xml</dc:format>
        <dc:type
           rdf:resource="http://purl.org/dc/dcmitype/StillImage" />
        <dc:title></dc:title>
      </cc:Work>
    </rdf:RDF>
  </metadata>
  <g
     inkscape:label="Layer 1"
     inkscape:groupmode="layer"
     id="layer1">
    <path
       style="fill:#ffffff;fill-opacity:0.82978724999999998;fill-rule:nonzero;stroke:#000000;stroke-width:25;stroke-miterlimit:4;stroke-opacity:1;stroke-dasharray:none;filter:url(#filter6571)"
       d="M 402.03125 211.90625 C 249.72678 211.90625 126.28125 335.38303 126.28125 487.6875 C 126.28125 639.99197 249.72678 763.46875 402.03125 763.46875 C 554.33572 763.46875 677.8125 639.99197 677.8125 487.6875 C 677.8125 335.38303 554.33572 211.90625 402.03125 211.90625 z M 387 365.78125 C 389.68596 365.78125 391.90625 366.21281 391.90625 366.75 C 391.90625 367.35106 396.78 367.75 404.59375 367.75 C 412.40748 367.75 417.28125 367.35106 417.28125 366.75 C 417.28125 366.18567 420.39256 365.78125 424.625 365.78125 C 428.85744 365.78125 431.9375 366.18567 431.9375 366.75 C 431.9375 367.34906 436.66808 367.75 444.15625 367.75 C 451.64441 367.75 456.375 368.11971 456.375 368.71875 C 456.375 369.25595 455.91218 369.6875 455.375 369.6875 C 454.8378 369.6875 454.40625 370.11905 454.40625 370.65625 C 454.40625 371.19344 455.0692 371.65625 455.875 371.65625 C 456.68079 371.65625 457.34375 371.1194 457.34375 370.5 C 457.34375 369.88061 458.15315 370.34341 459.15625 371.5 C 460.15935 372.65658 461.30925 373.59375 461.6875 373.59375 C 462.74955 373.59375 465.15625 376.26592 465.15625 377.4375 C 465.15625 378.01307 466.68232 378.46875 468.5625 378.46875 C 471.55777 378.46875 472 378.17072 472 376.03125 C 472 373.96928 472.4319 373.59375 474.90625 373.59375 C 477.38059 373.59375 477.84375 373.96928 477.84375 376.03125 C 477.84375 378.31025 478.16072 378.46875 482.71875 378.46875 L 487.625 378.46875 L 487.625 390.6875 C 487.625 398.17567 487.9947 402.90625 488.59375 402.90625 C 489.18608 402.90625 489.5625 407.16078 489.5625 413.71875 C 489.5625 424.87556 488.79729 427.3125 485.25 427.3125 C 484.40583 427.3125 483.71875 427.97545 483.71875 428.78125 C 483.71875 429.98073 485.4033 430.25 493 430.25 C 498.53474 430.25 502.28125 430.63614 502.28125 431.21875 C 502.28125 431.81981 507.15502 432.1875 514.96875 432.1875 C 527.01495 432.1875 527.65625 432.30304 527.65625 434.15625 C 527.65625 435.45854 528.32271 436.09375 529.625 436.09375 C 530.94974 436.09375 531.5625 436.75295 531.5625 438.125 C 531.5625 441.64276 533.90849 442.9375 540.28125 442.9375 C 543.58349 442.9375 546.21875 443.36235 546.21875 443.90625 C 546.21875 444.48079 549.64765 444.90625 554.53125 444.90625 C 559.41482 444.90625 562.8125 445.30046 562.8125 445.875 C 562.8125 446.43932 565.9238 446.84375 570.15625 446.84375 C 574.38868 446.84375 577.46875 446.43932 577.46875 445.875 C 577.46875 445.3133 580.50507 444.90625 584.59375 444.90625 C 590.58312 444.90625 591.90766 445.19818 593.09375 446.84375 C 594.2797 448.48934 595.63563 448.8125 601.625 448.8125 C 605.71368 448.8125 608.71875 449.21956 608.71875 449.78125 C 608.71875 451.18709 611.41502 450.98089 612 449.53125 C 612.27102 448.85976 612.52011 449.29131 612.5625 450.5 C 612.6322 452.50329 613.10318 452.71875 618 452.71875 C 622.12395 452.71875 623.375 453.0628 623.375 454.1875 C 623.375 454.9933 623.8065 455.625 624.34375 455.625 C 624.88101 455.625 625.34375 456.95092 625.34375 458.5625 C 625.34375 460.17408 625.77524 461.5 626.3125 461.5 C 626.84961 461.5 627.28125 463.25747 627.28125 465.40625 C 627.28125 469.2201 627.38223 469.3125 630.71875 469.3125 C 633.9744 469.3125 634.125 469.46303 634.125 472.71875 C 634.125 474.59894 634.55663 476.15625 635.09375 476.15625 C 635.631 476.15625 636.0625 477.27489 636.0625 478.65625 C 636.0625 481.23177 634.11391 483.96875 632.25 483.96875 C 631.67446 483.96875 631.1875 485.06327 631.1875 486.40625 C 631.1875 488.54574 631.6297 488.84375 634.625 488.84375 C 636.50518 488.84375 638.03125 489.27531 638.03125 489.8125 C 638.03125 490.34969 638.70096 490.8125 639.53125 490.8125 C 641.63746 490.8125 645.87437 495.22673 645.78125 497.34375 C 645.73615 498.36792 645.47521 498.58802 645.1875 497.875 C 644.91662 497.20351 643.21033 496.65625 641.375 496.65625 C 639.53954 496.65625 638.03125 496.22469 638.03125 495.6875 C 638.03125 495.1503 636.04244 494.71875 633.625 494.71875 C 629.24233 494.71875 629.25 494.70334 629.25 498.15625 C 629.25 501.85835 625.76392 506.4375 622.9375 506.4375 C 621.86354 506.4375 621.4375 507.41153 621.4375 509.84375 C 621.4375 511.72393 621.86913 513.25 622.40625 513.25 C 622.9435 513.25 623.375 514.2756 623.375 515.5 C 623.375 516.72439 624.26938 518.35062 625.34375 519.125 C 626.82 520.18902 627.28125 521.65889 627.28125 525.125 C 627.28125 527.83924 626.78503 529.94408 626.0625 530.28125 C 625.08576 530.73705 625.08576 530.95045 626.0625 531.40625 C 627.50716 532.08045 627.73091 537.6875 626.3125 537.6875 C 625.77524 537.6875 625.34375 539.21357 625.34375 541.09375 C 625.34375 542.97393 624.88101 544.53125 624.34375 544.53125 C 623.8065 544.53125 623.375 545.20103 623.375 546.03125 C 623.375 547.73076 619.13036 552.34375 617.5625 552.34375 C 617.00077 552.34375 616.53125 552.77532 616.53125 553.3125 C 616.53125 553.8497 615.66825 554.28125 614.59375 554.28125 C 613.51938 554.28125 612.625 554.76818 612.625 555.34375 C 612.625 556.89987 610.06674 559.15625 608.3125 559.15625 C 607.4684 559.15625 606.78125 559.61906 606.78125 560.15625 C 606.78125 560.69345 605.88687 561.125 604.8125 561.125 C 603.73812 561.125 602.875 561.55655 602.875 562.09375 C 602.875 562.63093 601.78042 563.09375 600.4375 563.09375 C 599.09457 563.09375 598 563.5253 598 564.0625 C 598 564.59968 597.10562 565.03125 596.03125 565.03125 C 594.95688 565.03125 594.0625 565.4628 594.0625 566 C 594.0625 566.5372 593.19937 567 592.125 567 C 591.05063 567 590.15625 567.43155 590.15625 567.96875 C 590.15625 568.50594 589.06168 568.9375 587.71875 568.9375 C 586.19943 568.9375 585.28125 569.49466 585.28125 570.40625 C 585.28125 571.21205 584.51832 571.875 583.5625 571.875 C 582.60669 571.875 581.18075 572.73811 580.40625 573.8125 C 579.57952 574.95963 577.87537 575.78125 576.28125 575.78125 C 574.78827 575.78125 573.5625 576.21281 573.5625 576.75 C 573.5625 577.2872 572.468 577.71875 571.125 577.71875 C 569.78202 577.71875 568.6875 578.18156 568.6875 578.71875 C 568.6875 579.25595 567.79313 579.6875 566.71875 579.6875 C 565.64435 579.6875 564.78125 580.11907 564.78125 580.65625 C 564.78125 581.19345 563.88689 581.625 562.8125 581.625 C 561.73811 581.625 560.875 582.0878 560.875 582.625 C 560.875 583.16218 559.98065 583.59375 558.90625 583.59375 C 557.83186 583.59375 556.96875 584.0253 556.96875 584.5625 C 556.96875 585.09969 555.87423 585.53125 554.53125 585.53125 C 553.18825 585.53125 552.09375 586.01818 552.09375 586.59375 C 552.09375 590.55128 557.27122 590.4375 386.59375 590.4375 C 278.78272 590.4375 223.90625 590.08472 223.90625 589.4375 C 223.90625 588.90031 222.81174 588.46875 221.46875 588.46875 C 219.94942 588.46875 219.03125 587.91161 219.03125 587 C 219.03125 586.19422 218.32762 585.53125 217.46875 585.53125 C 216.60988 585.53125 214.6617 584.23658 213.15625 582.625 C 211.65081 581.0134 209.80277 579.6875 209.0625 579.6875 C 208.32222 579.6875 207.08687 578.79313 206.3125 577.71875 C 205.53812 576.64435 204.44363 575.78125 203.875 575.78125 C 203.3064 575.78125 202.21187 574.88689 201.4375 573.8125 C 200.66312 572.73811 199.23703 571.875 198.28125 571.875 C 197.32544 571.875 196.5625 571.40537 196.5625 570.84375 C 196.5625 569.26403 191.93809 565.03125 190.21875 565.03125 C 188.81439 565.03125 179.9375 557.01924 179.9375 555.75 C 179.9375 555.01082 173.33739 548.4375 172.59375 548.4375 C 171.13585 548.4375 169.21875 545.41111 169.21875 543.125 C 169.21875 541.74364 168.75594 540.625 168.21875 540.625 C 167.68156 540.625 167.25 539.73064 167.25 538.65625 C 167.25 537.58186 167.68156 536.71875 168.21875 536.71875 C 168.75594 536.71875 169.21875 536.05579 169.21875 535.25 C 169.21875 534.4442 168.75594 533.78125 168.21875 533.78125 C 167.68156 533.78125 167.25 531.59223 167.25 528.90625 C 167.25 526.22028 167.68156 524 168.21875 524 C 168.75594 524 169.21875 523.13689 169.21875 522.0625 C 169.21875 520.98811 169.6503 520.09375 170.1875 520.09375 C 170.72468 520.09375 171.15625 518.99924 171.15625 517.65625 C 171.15625 516.31326 171.62588 515.21875 172.1875 515.21875 C 173.87707 515.21875 178 510.56692 178 508.65625 C 178 507.67604 177.10565 506.21189 176.03125 505.4375 C 174.95687 504.66312 174.09375 503.03007 174.09375 501.78125 C 174.09375 499.21545 178.11684 494.71875 180.40625 494.71875 C 181.23645 494.71875 181.90625 494.25593 181.90625 493.71875 C 181.90625 493.18155 182.76935 492.75 183.84375 492.75 C 184.91813 492.75 185.8125 492.31845 185.8125 491.78125 C 185.8125 491.24406 188.23293 490.8125 191.1875 490.8125 L 196.5625 490.8125 L 196.5625 484.4375 L 196.5625 478.09375 L 199.46875 478.09375 C 201.08033 478.09375 202.40625 478.55656 202.40625 479.09375 C 202.40625 479.63095 203.73217 480.0625 205.34375 480.0625 C 206.95534 480.0625 208.28125 480.49405 208.28125 481.03125 C 208.28125 481.56845 209.37577 482 210.71875 482 C 212.78071 482 213.15625 482.46315 213.15625 484.9375 C 213.15625 487.41186 212.78071 487.875 210.71875 487.875 C 209.19941 487.875 208.28125 488.43216 208.28125 489.34375 C 208.28125 490.25535 209.19941 490.8125 210.71875 490.8125 C 212.06175 490.8125 213.15625 490.34969 213.15625 489.8125 C 213.15625 489.27531 213.84334 488.84375 214.6875 488.84375 C 216.44168 488.84375 219.03125 486.55612 219.03125 485 C 219.03125 484.42442 219.48693 483.96875 220.0625 483.96875 C 220.63807 483.96875 221.75672 483.30579 222.5625 482.5 C 223.86479 481.19771 223.86479 480.86479 222.5625 479.5625 C 221.75672 478.75671 220.63807 478.09375 220.0625 478.09375 C 219.48693 478.09375 219.03125 477.43078 219.03125 476.625 C 219.03125 475.43761 217.44726 475.1875 210.71875 475.1875 C 203.99025 475.1875 202.40625 474.90613 202.40625 473.71875 C 202.40625 472.63351 203.55678 472.25 206.8125 472.25 C 210.06822 472.25 211.21875 471.86649 211.21875 470.78125 C 211.21875 469.54505 213.4449 469.3125 225.625 469.3125 C 238.93969 469.3125 240.17008 469.17681 241.46875 467.375 C 242.24313 466.30061 243.92473 465.40625 245.1875 465.40625 C 248.19184 465.40625 250.28125 463.22544 250.28125 460.09375 C 250.28125 458.5124 250.82755 457.59375 251.75 457.59375 C 252.83524 457.59375 253.21875 456.44323 253.21875 453.1875 C 253.21875 450.77012 253.6503 448.8125 254.1875 448.8125 C 254.7247 448.8125 255.15625 447.66261 255.15625 446.28125 C 255.15625 443.45503 257.16316 441 259.46875 441 C 260.45477 441 261.03125 440.09992 261.03125 438.53125 C 261.03125 436.4693 261.46314 436.09375 263.9375 436.09375 C 265.54908 436.09375 266.875 436.55657 266.875 437.09375 C 266.875 437.63095 267.9695 438.0625 269.3125 438.0625 C 270.65548 438.0625 271.75 437.63095 271.75 437.09375 C 271.75 436.55657 273.50749 436.09375 275.65625 436.09375 C 277.80504 436.09375 279.5625 435.6622 279.5625 435.125 C 279.5625 434.58781 281.11982 434.15625 283 434.15625 C 285.76735 434.15625 286.40625 433.76885 286.40625 432.1875 C 286.40625 430.3026 287.06225 430.25 304.96875 430.25 C 320.81328 430.25 323.53125 430.03213 323.53125 428.78125 C 323.53125 427.72314 322.44663 427.3125 319.625 427.3125 C 317.47622 427.3125 315.71875 426.88095 315.71875 426.34375 C 315.71875 425.80655 315.0558 425.375 314.25 425.375 C 313.43607 425.375 312.78125 424.49149 312.78125 423.40625 C 312.78125 421.5899 312.12767 421.46875 303.5 421.46875 C 297.96527 421.46875 294.21875 421.05134 294.21875 420.46875 C 294.21875 419.82778 272.7409 419.5 231.71875 419.5 L 169.21875 419.5 L 169.21875 414.625 L 169.21875 409.71875 L 176.53125 409.71875 C 182.39157 409.71875 183.84375 409.4533 183.84375 408.28125 C 183.84375 407.01262 187.66102 406.8125 212.1875 406.8125 C 230.41957 406.8125 240.5 406.44119 240.5 405.8125 C 240.5 405.18503 250.11965 404.84375 267.375 404.84375 C 284.63036 404.84375 294.21875 404.50246 294.21875 403.875 C 294.21875 403.30046 297.64766 402.90625 302.53125 402.90625 C 310.18221 402.90625 310.84375 402.73773 310.84375 400.9375 C 310.84375 399.86312 311.2753 399 311.8125 399 C 312.34968 399 312.78125 398.10563 312.78125 397.03125 C 312.78125 395.95686 313.26819 395.09375 313.84375 395.09375 C 314.98206 395.09375 317.65625 392.67037 317.65625 391.65625 C 317.65625 390.53127 320.42877 388.25 321.78125 388.25 C 322.50682 388.25 323.72563 387.35564 324.5 386.28125 C 325.95063 384.26863 331.34375 383.5071 331.34375 385.3125 C 331.34375 385.8497 332.86982 386.28125 334.75 386.28125 C 336.63018 386.28125 338.1875 386.74407 338.1875 387.28125 C 338.1875 387.81845 340.14512 388.25 342.5625 388.25 C 346.30657 388.25 346.96875 387.94529 346.96875 386.28125 C 346.96875 385.19601 346.31393 384.34375 345.5 384.34375 C 344.52329 384.34375 344.03125 383.35969 344.03125 381.40625 C 344.03125 379.45282 344.52329 378.46875 345.5 378.46875 C 346.3058 378.46875 346.96875 377.8058 346.96875 377 C 346.96875 375.89306 348.15393 375.5625 351.84375 375.5625 C 354.52973 375.5625 356.75 375.0997 356.75 374.5625 C 356.75 374.0253 357.61311 373.59375 358.6875 373.59375 C 359.76188 373.59375 360.65625 374.0253 360.65625 374.5625 C 360.65625 375.0997 361.28795 375.5625 362.09375 375.5625 C 362.89955 375.5625 363.5625 375.0997 363.5625 374.5625 C 363.5625 374.0253 364.78826 373.59375 366.28125 373.59375 C 367.87531 373.59375 369.57945 372.80338 370.40625 371.65625 C 371.18063 370.58187 372.60671 369.6875 373.5625 369.6875 C 374.5183 369.6875 375.28125 369.25595 375.28125 368.71875 C 375.28125 368.18157 376.83857 367.75 378.71875 367.75 C 380.59894 367.75 382.125 367.2872 382.125 366.75 C 382.125 366.21281 384.31402 365.78125 387 365.78125 z M 578.96875 544.6875 C 578.14161 544.82536 577.14465 545.71036 575.53125 547.4375 C 573.06866 550.07372 572.17176 550.375 566.8125 550.375 C 561.10972 550.375 560.875 550.47477 560.875 552.8125 C 560.875 554.15548 561.30655 555.25 561.84375 555.25 C 562.38094 555.25 562.8125 557.00747 562.8125 559.15625 C 562.8125 561.30503 563.2753 563.09375 563.8125 563.09375 C 565.53924 563.09375 564.83007 566.51457 562.8125 567.96875 C 561.73811 568.74312 560.875 569.9378 560.875 570.625 C 560.875 571.3122 560.44344 571.875 559.90625 571.875 C 559.36905 571.875 558.90625 572.30655 558.90625 572.84375 C 558.90625 574.43512 560.33403 573.96962 561.84375 571.875 C 562.75915 570.60494 564.38632 569.90625 566.46875 569.90625 C 568.23034 569.90625 569.65625 569.47468 569.65625 568.9375 C 569.65625 568.4003 570.77488 567.96875 572.15625 567.96875 C 574.73177 567.96875 577.46875 565.98887 577.46875 564.125 C 577.46875 563.54944 578.13169 563.09375 578.9375 563.09375 C 579.74332 563.09375 580.40625 562.63093 580.40625 562.09375 C 580.40625 561.55655 581.26938 561.125 582.34375 561.125 C 583.41812 561.125 584.3125 560.69345 584.3125 560.15625 C 584.3125 559.61906 585.17549 559.15625 586.25 559.15625 C 587.32437 559.15625 588.21875 558.7247 588.21875 558.1875 C 588.21875 557.65032 588.90576 557.21875 589.75 557.21875 C 591.5041 557.21875 594.0625 554.93112 594.0625 553.375 C 594.0625 552.79942 593.19937 552.34375 592.125 552.34375 C 591.05063 552.34375 590.15625 551.88095 590.15625 551.34375 C 590.15625 550.80656 589.29312 550.375 588.21875 550.375 C 587.14438 550.375 586.25 549.94344 586.25 549.40625 C 586.25 548.86905 585.48707 548.4375 584.53125 548.4375 C 583.57543 548.4375 582.14936 547.54315 581.375 546.46875 C 580.43669 545.1669 579.79589 544.54964 578.96875 544.6875 z M 197.53125 550.375 C 190.27883 550.375 189.71875 550.52839 189.71875 552.40625 C 189.71875 554.91638 191.91481 557.21875 194.3125 557.21875 C 195.30667 557.21875 196.75687 558.08185 197.53125 559.15625 C 198.30562 560.23063 199.7317 561.125 200.6875 561.125 C 201.6433 561.125 202.40625 561.55655 202.40625 562.09375 C 202.40625 562.63093 203.30061 563.09375 204.375 563.09375 C 205.44939 563.09375 206.3125 563.53737 206.3125 564.09375 C 206.3125 565.97042 210.6915 569.78354 212.90625 569.84375 C 214.47263 569.88625 215.125 569.36109 215.125 567.96875 C 215.125 566.89436 215.55655 566 216.09375 566 C 216.63093 566 217.0625 565.33705 217.0625 564.53125 C 217.0625 563.72546 216.63093 563.09375 216.09375 563.09375 C 215.55655 563.09375 215.125 561.76784 215.125 560.15625 C 215.125 557.38889 214.90857 557.21875 211.21875 557.21875 C 208.39711 557.21875 207.3125 556.80811 207.3125 555.75 C 207.3125 554.9442 206.8497 554.28125 206.3125 554.28125 C 205.7753 554.28125 205.34375 553.41814 205.34375 552.34375 C 205.34375 550.55311 204.69384 550.375 197.53125 550.375 z M 447.09375 550.375 C 442.01481 550.375 441.71875 550.50389 441.71875 552.8125 C 441.71875 554.15548 442.1503 555.25 442.6875 555.25 C 443.23012 555.25 443.65625 557.86928 443.65625 561.125 C 443.65625 564.38072 443.23012 567 442.6875 567 C 442.1503 567 441.71875 568.09452 441.71875 569.4375 C 441.71875 570.78049 441.25595 571.875 440.71875 571.875 C 440.18155 571.875 439.75 572.73811 439.75 573.8125 C 439.75 574.88689 439.31845 575.78125 438.78125 575.78125 C 438.24405 575.78125 437.8125 576.87577 437.8125 578.21875 C 437.8125 580.64247 437.8684 580.65625 446.59375 580.65625 L 455.375 580.65625 L 455.375 576.25 C 455.375 572.99428 454.99149 571.875 453.90625 571.875 C 452.99464 571.875 452.46875 570.95684 452.46875 569.4375 C 452.46875 568.09452 452.00595 567 451.46875 567 C 450.91063 567 450.5 564.06313 450.5 560.15625 C 450.5 556.24938 450.91063 553.3125 451.46875 553.3125 C 452.00595 553.3125 452.46875 552.64953 452.46875 551.84375 C 452.46875 550.71903 451.21767 550.375 447.09375 550.375 z M 332.25 557.21875 C 329.02535 557.21875 327.4375 559.60839 327.4375 564.46875 C 327.4375 566.9245 327.00594 568.9375 326.46875 568.9375 C 325.93155 568.9375 325.46875 570.03202 325.46875 571.375 C 325.46875 572.71798 325.0372 573.8125 324.5 573.8125 C 323.9628 573.8125 323.53125 574.70686 323.53125 575.78125 C 323.53125 577.21378 322.88439 577.71875 321.09375 577.71875 C 319.57441 577.71875 318.65625 578.27589 318.65625 579.1875 C 318.65625 579.99328 319.28796 580.65625 320.09375 580.65625 C 320.89954 580.65625 321.5625 581.0878 321.5625 581.625 C 321.5625 582.16219 323.98293 582.625 326.9375 582.625 C 329.89208 582.625 332.3125 582.16219 332.3125 581.625 C 332.3125 581.0878 334.06997 580.65625 336.21875 580.65625 C 338.36753 580.65625 340.125 581.0878 340.125 581.625 C 340.125 582.16219 340.55655 582.625 341.09375 582.625 C 341.63093 582.625 342.09375 582.15536 342.09375 581.59375 C 342.09375 580.02588 337.48077 575.78125 335.78125 575.78125 C 333.96986 575.78125 333.78638 574.20595 335.5 573.40625 C 336.47672 572.95045 336.47672 572.73705 335.5 572.28125 C 334.68425 571.90057 334.28125 569.30892 334.28125 564.46875 C 334.28125 557.79264 334.11459 557.21875 332.25 557.21875 z M 390.4375 559.15625 C 388.02012 559.15625 386.03125 559.61906 386.03125 560.15625 C 386.03125 560.69345 384.24965 561.125 382.0625 561.125 C 379.87535 561.125 377.45493 561.76383 376.6875 562.53125 C 375.92009 563.29867 375.28125 565.7191 375.28125 567.90625 C 375.28125 570.0934 374.8497 571.875 374.3125 571.875 C 373.7753 571.875 373.34375 572.73811 373.34375 573.8125 C 373.34375 574.88689 373.7753 575.78125 374.3125 575.78125 C 374.8497 575.78125 375.28125 576.21281 375.28125 576.75 C 375.28125 577.2872 374.41813 577.71875 373.34375 577.71875 C 372.25851 577.71875 371.375 578.37356 371.375 579.1875 C 371.375 580.43233 373.89185 580.65625 388 580.65625 L 404.59375 580.65625 L 404.59375 576.25 C 404.59375 573.83262 404.1622 571.875 403.625 571.875 C 403.08782 571.875 402.65625 570.31768 402.65625 568.4375 C 402.65625 566.55732 402.19345 565.03125 401.65625 565.03125 C 401.11905 565.03125 400.6875 564.16814 400.6875 563.09375 C 400.6875 561.57441 400.029 561.125 397.75 561.125 C 396.13842 561.125 394.8125 560.69345 394.8125 560.15625 C 394.8125 559.61906 392.85487 559.15625 390.4375 559.15625 z M 505.6875 559.15625 C 501.45505 559.15625 498.375 559.59192 498.375 560.15625 C 498.375 560.69345 497.48064 561.125 496.40625 561.125 C 494.8869 561.125 494.4375 561.78349 494.4375 564.0625 C 494.4375 566.01593 493.97671 567 493 567 C 492.12623 567 491.53125 567.89108 491.53125 569.21875 C 491.53125 570.44315 490.63688 572.06936 489.5625 572.84375 C 488.29243 573.75916 487.625 575.38631 487.625 577.46875 L 487.625 580.65625 L 508.625 580.65625 C 522.99125 580.65625 529.625 580.31433 529.625 579.59375 C 529.625 579.01443 527.86753 576.87705 525.71875 574.8125 C 522.81973 572.02712 521.8125 570.26234 521.8125 568.03125 C 521.8125 566.37755 521.3497 565.03125 520.8125 565.03125 C 520.2753 565.03125 519.84375 564.16814 519.84375 563.09375 C 519.84375 561.5124 519.20487 561.125 516.4375 561.125 C 514.55732 561.125 513 560.69345 513 560.15625 C 513 559.59192 509.91994 559.15625 505.6875 559.15625 z M 271.28125 561.125 C 267.69995 561.125 264.9375 561.54278 264.9375 562.09375 C 264.9375 562.63093 263.6116 563.09375 262 563.09375 C 259.39543 563.09375 259.0625 563.39541 259.0625 566 C 259.0625 567.95344 258.57046 568.9375 257.59375 568.9375 C 256.68214 568.9375 256.125 569.85566 256.125 571.375 C 256.125 572.71798 255.69345 573.8125 255.15625 573.8125 C 254.61906 573.8125 254.1875 574.6067 254.1875 575.5625 C 254.1875 576.5183 253.29313 577.94437 252.21875 578.71875 C 251.14435 579.49314 250.28125 580.68781 250.28125 581.375 C 250.28125 582.35278 255.05233 582.625 272.25 582.625 C 287.31476 582.625 294.21875 582.28455 294.21875 581.5625 C 294.21875 580.98319 292.46128 578.81455 290.3125 576.75 C 288.16372 574.68546 286.40625 572.08525 286.40625 570.96875 C 286.40625 569.85223 285.9747 568.9375 285.4375 568.9375 C 284.9003 568.9375 284.46875 567.61158 284.46875 566 C 284.46875 563.3024 284.17845 563.09375 281.03125 563.09375 C 279.15107 563.09375 277.625 562.63093 277.625 562.09375 C 277.625 561.54278 274.86255 561.125 271.28125 561.125 z "
       id="path5984" />
  </g>
</svg>
