<?xml version="1.0" encoding="UTF-8" standalone="no"?>
<!-- Created with Inkscape (http://www.inkscape.org/) -->

<svg
   xmlns:dc="http://purl.org/dc/elements/1.1/"
   xmlns:cc="http://creativecommons.org/ns#"
   xmlns:rdf="http://www.w3.org/1999/02/22-rdf-syntax-ns#"
   xmlns:svg="http://www.w3.org/2000/svg"
   xmlns="http://www.w3.org/2000/svg"
   xmlns:sodipodi="http://sodipodi.sourceforge.net/DTD/sodipodi-0.dtd"
   xmlns:inkscape="http://www.inkscape.org/namespaces/inkscape"
   version="1.0"
   width="400"
   height="400"
   id="svg24159"
   inkscape:version="0.48.4 r9939"
   sodipodi:docname="Skull_and_crossbones_vector.svg"
   inkscape:export-filename="C:\wrk\WarThunder\images\skull.png"
   inkscape:export-xdpi="53.214741"
   inkscape:export-ydpi="53.214741">
  <metadata
     id="metadata44">
    <rdf:RDF>
      <cc:Work
         rdf:about="">
        <dc:format>image/svg+xml</dc:format>
        <dc:type
           rdf:resource="http://purl.org/dc/dcmitype/StillImage" />
        <dc:title></dc:title>
      </cc:Work>
    </rdf:RDF>
  </metadata>
  <sodipodi:namedview
     pagecolor="#ffffff"
     bordercolor="#666666"
     borderopacity="1"
     objecttolerance="10"
     gridtolerance="10"
     guidetolerance="10"
     inkscape:pageopacity="0"
     inkscape:pageshadow="2"
     inkscape:window-width="1837"
     inkscape:window-height="1006"
     id="namedview42"
     showgrid="false"
     inkscape:zoom="4.1925"
     inkscape:cx="200"
     inkscape:cy="157.94126"
     inkscape:window-x="1272"
     inkscape:window-y="18"
     inkscape:window-maximized="1"
     inkscape:current-layer="layer1" />
  <defs
     id="defs24161" />
  <g
     id="layer1">
    <rect
       style="fill:#cccccc;fill-opacity:1;fill-rule:nonzero;stroke:none"
       id="rect3179"
       width="35.169491"
       height="39.194916"
       x="181.35593"
       y="286.86441" />
    <rect
       style="fill:#cccccc;fill-opacity:1;fill-rule:nonzero;stroke:none"
       id="rect3177"
       width="86.652542"
       height="74.152542"
       x="156.77966"
       y="233.68645" />
    <rect
       style="fill:#cccccc;fill-opacity:1;fill-rule:nonzero;stroke:none"
       id="rect3175"
       width="136.65254"
       height="102.54237"
       x="132.20338"
       y="165.88983" />
    <path
       inkscape:connector-curvature="0"
       id="path769"
       style="font-size:12px;fill:#cccccc;stroke:#000000;stroke-width:8.14998721999999990;stroke-linecap:butt;stroke-linejoin:round;stroke-opacity:0.99122798999999995;stroke-dasharray:none"
       d="m 134.16522,240.78523 c -17.01717,-8.3169 -31.15512,-14.52262 -47.980602,-23.79861 -9.148198,-7.29326 -6.205074,-15.54627 -17.272562,-22.26316 -4.862021,-2.43065 -8.380534,-3.51819 -12.282944,3.07091 -2.495004,5.88625 -2.303056,12.15522 -2.686887,18.23316 -4.350203,4.66961 -9.276186,7.42105 -12.858725,13.24275 -5.181892,8.3169 2.686823,11.06768 6.909103,12.09132 12.026969,3.00637 16.377107,-2.4313 27.444464,-0.19234 21.559651,10.04404 43.310333,20.47146 64.101933,30.7072" />
    <path
       inkscape:connector-curvature="0"
       id="path767"
       style="font-size:12px;fill:#cccccc;stroke:#000000;stroke-width:8.14998721999999990;stroke-linecap:square;stroke-linejoin:round;stroke-opacity:0.99122798999999995;stroke-dasharray:none"
       d="m 267.22453,240.14106 c 16.82809,-8.32342 30.67003,-15.0188 45.86943,-22.52787 9.31837,-7.78031 6.96661,-15.29003 14.38571,-20.89918 7.32781,-6.96661 12.21324,-5.24729 14.92752,-1.35681 2.62364,6.6041 3.89047,13.20885 3.52861,20.08483 6.96596,6.4235 10.67584,10.13272 14.65694,16.0144 0.54246,7.41845 -5.97166,10.49392 -13.84259,10.58455 -10.31397,1.89993 -11.94267,-4.61419 -23.61345,0 l -61.61195,29.04134 0,0" />
    <path
       d="M 117.39451,184.19694 C 104.91785,172.0678 96.198019,151.01801 94.987909,128.28672 93.674131,103.23692 106.86603,78.363089 126.63398,64.182697 c 22.14776,-15.588905 59.17935,-19.900313 82.20534,-18.736821 15.59647,0.01082 50.33824,8.097958 62.60169,17.230834 21.51205,15.641521 33.04852,37.84202 33.84787,63.1461 1.18208,25.41688 -9.5231,44.77603 -22.63154,56.85823"
       style="font-size:12px;fill:#cccccc;stroke:#000000;stroke-width:8.14998721999999990;stroke-linecap:round;stroke-linejoin:round;stroke-opacity:0.99122798999999995;stroke-dasharray:none"
       id="path573"
       inkscape:connector-curvature="0" />
    <path
       d="m 118.15343,112.93736 c -5.05429,4.42185 -4.41664,11.06898 -3.50645,20.98915 0.71851,7.53711 5.52765,14.9562 5.78063,21.84197 1.76822,14.52979 -2.52715,29.05959 -4.549,40.9364 -1.39006,13.64504 2.5278,25.39537 7.58144,29.94371 5.05365,4.48575 11.5769,6.3433 18.43071,8.43426 6.22724,1.62869 9.45659,4.46098 14.16664,7.97264 5.6111,5.95732 6.94965,10.88447 6.82316,16.94937"
       style="font-size:12px;fill:#cccccc;stroke:#000000;stroke-width:8.14998721999999990;stroke-linecap:butt;stroke-linejoin:round;stroke-opacity:0.99122798999999995;stroke-dasharray:none"
       id="path580"
       inkscape:connector-curvature="0" />
    <path
       d="m 282.7172,112.55829 c 5.05429,4.42186 4.41664,11.06899 3.50645,20.98915 -0.7185,7.53711 -5.52765,14.95621 -5.78062,21.84197 -1.76823,14.5298 2.52714,29.05959 4.54899,40.93641 1.39007,13.64503 -2.5278,25.39536 -7.58144,29.9437 -5.05365,4.48576 -14.3029,6.89489 -18.43071,8.43426 -4.8098,1.68281 -9.72782,4.73221 -14.16663,8.24388 -5.33988,5.14297 -6.94966,10.61324 -6.82317,16.67813"
       style="font-size:12px;fill:#cccccc;stroke:#000000;stroke-width:8.14998721999999990;stroke-linecap:butt;stroke-linejoin:round;stroke-opacity:0.99122798999999995;stroke-dasharray:none"
       id="path581"
       inkscape:connector-curvature="0" />
    <path
       inkscape:connector-curvature="0"
       id="path765"
       style="font-size:12px;fill:#cccccc;stroke:#000000;stroke-width:8.14998721999999990;stroke-linecap:butt;stroke-linejoin:round;stroke-opacity:0.99122798999999995;stroke-dasharray:none"
       d="m 260.71041,284.65368 44.51327,20.62795 c 5.42789,2.26178 9.77021,1.53806 13.84194,0.27123 6.4235,-1.89993 11.48953,-0.8137 16.82744,1.35746 6.4235,3.25673 6.60541,7.87093 2.4437,12.48513 -3.79985,4.43294 -7.60036,6.69472 -12.2139,11.12767 -0.9956,7.14721 -0.36251,13.75196 -3.52927,20.35671 -3.98046,5.78975 -8.23279,4.7948 -14.92752,-1.35746 -6.78535,-5.24794 -4.34296,-11.0377 -14.11382,-19.54237 l -41.25589,-21.44164 0,0" />
    <path
       d="m 267.63124,233.35634 c -4.52357,10.94706 -9.31837,21.62289 -9.77085,32.84119 2.08052,9.04713 1.44743,19.72297 -0.81435,28.22764 -2.89553,11.67078 -14.34007,25.10587 -25.64964,29.72007 -11.30892,4.6142 -18.54611,5.69978 -31.48373,5.69978"
       style="font-size:12px;fill:#cccccc;stroke:#000000;stroke-width:8.14998721999999990;stroke-linecap:butt;stroke-linejoin:miter;stroke-opacity:0.99122798999999995;stroke-dasharray:none"
       id="path614"
       inkscape:connector-curvature="0" />
    <path
       inkscape:connector-curvature="0"
       id="path766"
       style="font-size:12px;fill:#cccccc;stroke:#000000;stroke-width:8.14998721999999990;stroke-linecap:butt;stroke-linejoin:round;stroke-opacity:0.99122798999999995;stroke-dasharray:none"
       d="m 139.1152,284.38245 c -14.83754,7.87093 -28.31762,15.19875 -45.326317,21.71287 -13.842591,3.43799 -13.299476,-5.06603 -30.127505,0.54312 -4.795061,3.79985 -4.704564,9.22774 -0.814216,13.29882 4.523699,4.43359 7.690328,7.23849 11.671238,11.12897 1.266834,5.60915 1.447438,10.40395 2.171157,17.09867 2.714272,8.23345 8.685279,7.78096 13.841939,3.80051 2.261784,-2.8049 5.066684,-5.33792 6.785353,-8.41405 2.352413,-4.07108 4.976061,-8.68528 8.142811,-12.48513 l 40.98401,-21.71352" />
    <path
       d="m 132.60108,233.35636 c 4.52357,10.94706 9.31837,21.62289 9.77086,32.84119 -2.08053,9.04713 -1.44744,19.72297 0.81434,28.22764 2.89553,11.67078 14.20445,25.51272 25.51403,30.12692 11.58015,4.2067 18.81799,5.29293 31.75496,5.29293"
       style="font-size:12px;fill:#cccccc;stroke:#000000;stroke-width:8.14998721999999990;stroke-linecap:butt;stroke-linejoin:miter;stroke-opacity:0.99122798999999995;stroke-dasharray:none"
       id="path613"
       inkscape:connector-curvature="0" />
    <path
       d="m 143.95303,238.29264 c 3.70988,8.70028 4.8574,12.00656 7.53255,20.6801 2.27939,8.01242 3.11721,12.90567 4.52552,24.29218"
       style="font-size:12px;fill:#cccccc;stroke:#000000;stroke-width:4.07499360999999990;stroke-linecap:butt;stroke-linejoin:miter;stroke-opacity:0.99122798999999995;stroke-dasharray:none"
       id="path611"
       inkscape:connector-curvature="0" />
    <path
       d="m 256.00187,237.81284 c -3.70988,8.70028 -4.85739,12.00657 -7.53255,20.68011 -2.27938,8.01241 -3.1172,12.90567 -4.52552,24.29218"
       style="font-size:12px;fill:#cccccc;stroke:#000000;stroke-width:4.07499360999999990;stroke-linecap:butt;stroke-linejoin:miter;stroke-opacity:0.99122798999999995;stroke-dasharray:none"
       id="path612"
       inkscape:connector-curvature="0" />
    <path
       inkscape:connector-curvature="0"
       id="path588"
       style="font-size:12px;fill:#cccccc;stroke:#000000;stroke-width:3.25999498000000010;stroke-linecap:butt;stroke-linejoin:miter;stroke-opacity:0.99122798999999995;stroke-dasharray:none"
       d="m 159.78618,258.63631 c 9.59612,5.8856 26.18493,6.79318 41.04725,6.52586 16.55686,-0.0841 30.73067,-1.27987 40.0386,-6.90923" />
    <path
       d="m 155.46799,282.0509 c 11.32326,13.65808 27.12837,16.0294 45.10072,16.50536 19.24636,0.7022 38.57618,-6.94053 43.56593,-16.50471"
       style="font-size:12px;fill:#cccccc;stroke:#000000;stroke-width:4.07499360999999990;stroke-linecap:butt;stroke-linejoin:miter;stroke-opacity:0.99122798999999995;stroke-dasharray:none"
       id="path609"
       inkscape:connector-curvature="0" />
    <path
       inkscape:connector-curvature="0"
       id="path608"
       style="font-size:12px;fill:#cccccc;stroke:#000000;stroke-width:3.25999498000000010;stroke-linecap:butt;stroke-linejoin:miter;stroke-opacity:0.99122798999999995;stroke-dasharray:none"
       d="m 163.14462,273.99089 c 10.58716,6.653 23.03774,8.9376 37.3765,8.39644 14.89296,-0.36251 26.30881,-1.61565 36.51259,-8.58813" />
    <path
       inkscape:connector-curvature="0"
       id="path589"
       style="font-size:12px;fill:#cccccc;stroke:#000000;stroke-width:3.25999498000000010;stroke-linecap:butt;stroke-linejoin:miter;stroke-opacity:0.99122798999999995;stroke-dasharray:none"
       d="M 162.99923,261.58596 162.728,288.45614" />
    <path
       inkscape:connector-curvature="0"
       id="path592"
       style="font-size:12px;fill:#cccccc;stroke:#000000;stroke-width:3.25999498000000010;stroke-linecap:butt;stroke-linejoin:miter;stroke-opacity:0.99122798999999995;stroke-dasharray:none"
       d="m 171.82012,264.43584 -0.13561,28.77011" />
    <path
       inkscape:connector-curvature="0"
       id="path593"
       style="font-size:12px;fill:#cccccc;stroke:#000000;stroke-width:3.25999498000000010;stroke-linecap:butt;stroke-linejoin:miter;stroke-opacity:0.99122798999999995;stroke-dasharray:none"
       d="m 181.59098,265.65704 -0.27123,30.12757" />
    <path
       inkscape:connector-curvature="0"
       id="path594"
       style="font-size:12px;fill:#cccccc;stroke:#000000;stroke-width:3.25999498000000010;stroke-linecap:butt;stroke-linejoin:miter;stroke-opacity:0.99122798999999995;stroke-dasharray:none"
       d="m 190.41253,266.33577 -0.13627,30.53442" />
    <path
       inkscape:connector-curvature="0"
       id="path595"
       style="font-size:12px;fill:#cccccc;stroke:#000000;stroke-width:3.25999498000000010;stroke-linecap:butt;stroke-linejoin:miter;stroke-opacity:0.99122798999999995;stroke-dasharray:none"
       d="m 200.319,266.607 0,30.53442" />
    <path
       inkscape:connector-curvature="0"
       id="path598"
       style="font-size:12px;fill:#cccccc;stroke:#000000;stroke-width:3.25999498000000010;stroke-linecap:butt;stroke-linejoin:miter;stroke-opacity:0.99122798999999995;stroke-dasharray:none"
       d="m 209.81862,266.47139 0.13562,30.53441" />
    <path
       inkscape:connector-curvature="0"
       id="path599"
       style="font-size:12px;fill:#cccccc;stroke:#000000;stroke-width:3.25999498000000010;stroke-linecap:butt;stroke-linejoin:miter;stroke-opacity:0.99122798999999995;stroke-dasharray:none"
       d="m 218.36812,265.65702 0.27123,29.99195" />
    <path
       inkscape:connector-curvature="0"
       id="path604"
       style="font-size:12px;fill:#cccccc;stroke:#000000;stroke-width:3.25999498000000010;stroke-linecap:butt;stroke-linejoin:miter;stroke-opacity:0.99122798999999995;stroke-dasharray:none"
       d="m 228.27476,264.029 0.13562,28.7701" />
    <path
       inkscape:connector-curvature="0"
       id="path606"
       style="font-size:12px;fill:#cccccc;stroke:#000000;stroke-width:3.25999498000000010;stroke-linecap:butt;stroke-linejoin:miter;stroke-opacity:0.99122798999999995;stroke-dasharray:none"
       d="m 237.23127,260.50038 0.27188,27.14141" />
    <path
       d="m 197.84923,199.94271 c -6.32179,4.80719 -7.72815,6.42154 -11.22156,11.7412 -1.26422,2.05314 -3.62511,6.8512 -4.27059,10.07012 -0.64483,3.21827 -1.12796,7.88789 -1.126,10.36092 0.008,8.38014 2.67515,13.63721 5.58828,13.454 2.60278,-0.29862 5.91493,-3.01289 10.93402,-9.17754"
       style="font-size:12px;fill:#000000;fill-opacity:1;fill-rule:evenodd;stroke:#000000;stroke-width:0.651999pt;stroke-linecap:butt;stroke-linejoin:miter;stroke-opacity:0.99122799"
       id="path584"
       inkscape:connector-curvature="0" />
    <path
       d="m 202.40148,200.07839 c 6.32179,4.80719 7.72815,6.42154 11.22156,11.7412 1.26423,2.05314 3.62511,6.8512 4.27059,10.07012 0.64483,3.21827 1.12796,7.88789 1.12601,10.36092 -0.008,8.38014 -2.67516,13.63721 -5.58829,13.454 -2.60278,-0.29862 -5.91493,-3.01289 -10.93402,-9.17754"
       style="font-size:12px;fill:#000000;fill-opacity:1;fill-rule:evenodd;stroke:#000000;stroke-width:0.651999pt;stroke-linecap:butt;stroke-linejoin:bevel;stroke-opacity:0.99122799"
       id="path585"
       inkscape:connector-curvature="0" />
    <path
       d="m 144.11259,163.33295 c 8.77591,-1.53807 17.27993,-2.53302 26.05584,-3.52797 11.49018,-2.89553 17.28058,10.22335 14.11382,20.08483 -3.98045,8.77591 -9.5896,16.46623 -16.01309,23.88468 -4.97606,5.60915 -10.90404,6.51673 -16.55687,4.61354 -4.56269,-1.26487 -8.77656,-4.07043 -13.30013,-10.58455 -1.9899,-5.6098 -3.70857,-8.50532 -6.24223,-15.47128 -1.9899,-6.4235 1.10513,-16.03918 11.94266,-18.99925 z"
       style="font-size:12px;fill:#000000;fill-opacity:1;fill-rule:evenodd;stroke:#000000;stroke-width:0.651999pt;stroke-linecap:butt;stroke-linejoin:miter;stroke-opacity:0.99122799"
       id="path586"
       inkscape:connector-curvature="0" />
    <path
       d="m 256.30994,163.33295 c -8.77591,-1.53807 -17.27993,-2.53302 -26.05584,-3.52797 -11.49018,-2.89553 -17.28058,10.22335 -14.11382,20.08483 3.98045,8.77591 9.5896,16.46623 16.01309,23.88468 4.97606,5.60915 10.90403,6.51673 16.55687,4.61354 4.56268,-1.26487 8.77655,-4.07043 13.30012,-10.58455 1.9899,-5.6098 3.70857,-8.50532 6.24224,-15.47128 1.9899,-6.4235 -1.10514,-16.03918 -11.94266,-18.99925 z"
       style="font-size:12px;fill:#000000;fill-opacity:1;fill-rule:evenodd;stroke:#000000;stroke-width:0.651999pt;stroke-linecap:butt;stroke-linejoin:miter;stroke-opacity:0.99122799"
       id="path587"
       inkscape:connector-curvature="0" />
  </g>
</svg>
